<?xml version="1.0" encoding="UTF-8"?>
<svg width="384" height="384" viewBox="0 0 384 384" xmlns="http://www.w3.org/2000/svg">
  <defs>
    <linearGradient id="bgGradient" x1="0%" y1="0%" x2="100%" y2="100%">
      <stop offset="0%" style="stop-color:#FFE4F0;stop-opacity:1" />
      <stop offset="50%" style="stop-color:#FFC0CB;stop-opacity:1" />
      <stop offset="100%" style="stop-color:#FFB6D4;stop-opacity:1" />
    </linearGradient>
    <filter id="shadow">
      <feDropShadow dx="0" dy="2" stdDeviation="3" flood-opacity="0.3"/>
    </filter>
  </defs>
  
  <!-- Fondo -->
  <rect width="384" height="384" fill="url(#bgGradient)" rx="38.400000000000006"/>
  
  <!-- Flor central grande -->
  <g transform="translate(192, 192)" filter="url(#shadow)">
    <!-- Pétalos -->
    
      <ellipse cx="0" cy="-57.599999999999994" rx="38.400000000000006" ry="76.80000000000001" 
               fill="#FF69B4" transform="rotate(0)"/>
    
      <ellipse cx="0" cy="-57.599999999999994" rx="38.400000000000006" ry="76.80000000000001" 
               fill="#FF69B4" transform="rotate(72)"/>
    
      <ellipse cx="0" cy="-57.599999999999994" rx="38.400000000000006" ry="76.80000000000001" 
               fill="#FF69B4" transform="rotate(144)"/>
    
      <ellipse cx="0" cy="-57.599999999999994" rx="38.400000000000006" ry="76.80000000000001" 
               fill="#FF69B4" transform="rotate(216)"/>
    
      <ellipse cx="0" cy="-57.599999999999994" rx="38.400000000000006" ry="76.80000000000001" 
               fill="#FF69B4" transform="rotate(288)"/>
    
    <!-- Centro -->
    <circle cx="0" cy="0" r="28.799999999999997" fill="#FFE066"/>
    <circle cx="0" cy="0" r="19.200000000000003" fill="#FFA500" opacity="0.6"/>
  </g>
  
  <!-- Flores pequeñas decorativas -->
  
    <g transform="translate(96, 115.19999999999999)" filter="url(#shadow)">
      
        <ellipse cx="0" cy="-30.72" rx="18.432000000000002" ry="36.864000000000004" 
                 fill="#FFB6D4" transform="rotate(0)"/>
      
        <ellipse cx="0" cy="-30.72" rx="18.432000000000002" ry="36.864000000000004" 
                 fill="#FFB6D4" transform="rotate(90)"/>
      
        <ellipse cx="0" cy="-30.72" rx="18.432000000000002" ry="36.864000000000004" 
                 fill="#FFB6D4" transform="rotate(180)"/>
      
        <ellipse cx="0" cy="-30.72" rx="18.432000000000002" ry="36.864000000000004" 
                 fill="#FFB6D4" transform="rotate(270)"/>
      
      <circle cx="0" cy="0" r="13.823999999999998" fill="#FFE066"/>
    </g>
  
    <g transform="translate(288, 115.19999999999999)" filter="url(#shadow)">
      
        <ellipse cx="0" cy="-30.72" rx="18.432000000000002" ry="36.864000000000004" 
                 fill="#FFB6D4" transform="rotate(0)"/>
      
        <ellipse cx="0" cy="-30.72" rx="18.432000000000002" ry="36.864000000000004" 
                 fill="#FFB6D4" transform="rotate(90)"/>
      
        <ellipse cx="0" cy="-30.72" rx="18.432000000000002" ry="36.864000000000004" 
                 fill="#FFB6D4" transform="rotate(180)"/>
      
        <ellipse cx="0" cy="-30.72" rx="18.432000000000002" ry="36.864000000000004" 
                 fill="#FFB6D4" transform="rotate(270)"/>
      
      <circle cx="0" cy="0" r="13.823999999999998" fill="#FFE066"/>
    </g>
  
    <g transform="translate(134.39999999999998, 288)" filter="url(#shadow)">
      
        <ellipse cx="0" cy="-30.72" rx="18.432000000000002" ry="36.864000000000004" 
                 fill="#FF85C0" transform="rotate(0)"/>
      
        <ellipse cx="0" cy="-30.72" rx="18.432000000000002" ry="36.864000000000004" 
                 fill="#FF85C0" transform="rotate(90)"/>
      
        <ellipse cx="0" cy="-30.72" rx="18.432000000000002" ry="36.864000000000004" 
                 fill="#FF85C0" transform="rotate(180)"/>
      
        <ellipse cx="0" cy="-30.72" rx="18.432000000000002" ry="36.864000000000004" 
                 fill="#FF85C0" transform="rotate(270)"/>
      
      <circle cx="0" cy="0" r="13.823999999999998" fill="#FFE066"/>
    </g>
  
    <g transform="translate(249.60000000000002, 288)" filter="url(#shadow)">
      
        <ellipse cx="0" cy="-30.72" rx="18.432000000000002" ry="36.864000000000004" 
                 fill="#FF85C0" transform="rotate(0)"/>
      
        <ellipse cx="0" cy="-30.72" rx="18.432000000000002" ry="36.864000000000004" 
                 fill="#FF85C0" transform="rotate(90)"/>
      
        <ellipse cx="0" cy="-30.72" rx="18.432000000000002" ry="36.864000000000004" 
                 fill="#FF85C0" transform="rotate(180)"/>
      
        <ellipse cx="0" cy="-30.72" rx="18.432000000000002" ry="36.864000000000004" 
                 fill="#FF85C0" transform="rotate(270)"/>
      
      <circle cx="0" cy="0" r="13.823999999999998" fill="#FFE066"/>
    </g>
  
  
  <!-- Decoración adicional - pétalos flotantes -->
  <g opacity="0.3">
    <ellipse cx="57.599999999999994" cy="57.599999999999994" rx="15.36" ry="30.72" 
             fill="#FFE4F0" transform="rotate(45 57.599999999999994 57.599999999999994)"/>
    <ellipse cx="326.4" cy="326.4" rx="15.36" ry="30.72" 
             fill="#FFE4F0" transform="rotate(-45 326.4 326.4)"/>
  </g>
  
  <!-- Borde decorativo -->
  <rect x="2" y="2" width="380" height="380" 
        fill="none" stroke="rgba(255, 255, 255, 0.4)" stroke-width="3" rx="38.400000000000006"/>
</svg>