<?xml version="1.0" encoding="UTF-8"?>
<svg width="192" height="192" viewBox="0 0 192 192" xmlns="http://www.w3.org/2000/svg">
  <defs>
    <linearGradient id="bgGradient" x1="0%" y1="0%" x2="100%" y2="100%">
      <stop offset="0%" style="stop-color:#FFE4F0;stop-opacity:1" />
      <stop offset="50%" style="stop-color:#FFC0CB;stop-opacity:1" />
      <stop offset="100%" style="stop-color:#FFB6D4;stop-opacity:1" />
    </linearGradient>
    <filter id="shadow">
      <feDropShadow dx="0" dy="2" stdDeviation="3" flood-opacity="0.3"/>
    </filter>
  </defs>
  
  <!-- Fondo -->
  <rect width="192" height="192" fill="url(#bgGradient)" rx="19.200000000000003"/>
  
  <!-- Flor central grande -->
  <g transform="translate(96, 96)" filter="url(#shadow)">
    <!-- Pétalos -->
    
      <ellipse cx="0" cy="-28.799999999999997" rx="19.200000000000003" ry="38.400000000000006" 
               fill="#FF69B4" transform="rotate(0)"/>
    
      <ellipse cx="0" cy="-28.799999999999997" rx="19.200000000000003" ry="38.400000000000006" 
               fill="#FF69B4" transform="rotate(72)"/>
    
      <ellipse cx="0" cy="-28.799999999999997" rx="19.200000000000003" ry="38.400000000000006" 
               fill="#FF69B4" transform="rotate(144)"/>
    
      <ellipse cx="0" cy="-28.799999999999997" rx="19.200000000000003" ry="38.400000000000006" 
               fill="#FF69B4" transform="rotate(216)"/>
    
      <ellipse cx="0" cy="-28.799999999999997" rx="19.200000000000003" ry="38.400000000000006" 
               fill="#FF69B4" transform="rotate(288)"/>
    
    <!-- Centro -->
    <circle cx="0" cy="0" r="14.399999999999999" fill="#FFE066"/>
    <circle cx="0" cy="0" r="9.600000000000001" fill="#FFA500" opacity="0.6"/>
  </g>
  
  <!-- Flores pequeñas decorativas -->
  
    <g transform="translate(48, 57.599999999999994)" filter="url(#shadow)">
      
        <ellipse cx="0" cy="-15.36" rx="9.216000000000001" ry="18.432000000000002" 
                 fill="#FFB6D4" transform="rotate(0)"/>
      
        <ellipse cx="0" cy="-15.36" rx="9.216000000000001" ry="18.432000000000002" 
                 fill="#FFB6D4" transform="rotate(90)"/>
      
        <ellipse cx="0" cy="-15.36" rx="9.216000000000001" ry="18.432000000000002" 
                 fill="#FFB6D4" transform="rotate(180)"/>
      
        <ellipse cx="0" cy="-15.36" rx="9.216000000000001" ry="18.432000000000002" 
                 fill="#FFB6D4" transform="rotate(270)"/>
      
      <circle cx="0" cy="0" r="6.911999999999999" fill="#FFE066"/>
    </g>
  
    <g transform="translate(144, 57.599999999999994)" filter="url(#shadow)">
      
        <ellipse cx="0" cy="-15.36" rx="9.216000000000001" ry="18.432000000000002" 
                 fill="#FFB6D4" transform="rotate(0)"/>
      
        <ellipse cx="0" cy="-15.36" rx="9.216000000000001" ry="18.432000000000002" 
                 fill="#FFB6D4" transform="rotate(90)"/>
      
        <ellipse cx="0" cy="-15.36" rx="9.216000000000001" ry="18.432000000000002" 
                 fill="#FFB6D4" transform="rotate(180)"/>
      
        <ellipse cx="0" cy="-15.36" rx="9.216000000000001" ry="18.432000000000002" 
                 fill="#FFB6D4" transform="rotate(270)"/>
      
      <circle cx="0" cy="0" r="6.911999999999999" fill="#FFE066"/>
    </g>
  
    <g transform="translate(67.19999999999999, 144)" filter="url(#shadow)">
      
        <ellipse cx="0" cy="-15.36" rx="9.216000000000001" ry="18.432000000000002" 
                 fill="#FF85C0" transform="rotate(0)"/>
      
        <ellipse cx="0" cy="-15.36" rx="9.216000000000001" ry="18.432000000000002" 
                 fill="#FF85C0" transform="rotate(90)"/>
      
        <ellipse cx="0" cy="-15.36" rx="9.216000000000001" ry="18.432000000000002" 
                 fill="#FF85C0" transform="rotate(180)"/>
      
        <ellipse cx="0" cy="-15.36" rx="9.216000000000001" ry="18.432000000000002" 
                 fill="#FF85C0" transform="rotate(270)"/>
      
      <circle cx="0" cy="0" r="6.911999999999999" fill="#FFE066"/>
    </g>
  
    <g transform="translate(124.80000000000001, 144)" filter="url(#shadow)">
      
        <ellipse cx="0" cy="-15.36" rx="9.216000000000001" ry="18.432000000000002" 
                 fill="#FF85C0" transform="rotate(0)"/>
      
        <ellipse cx="0" cy="-15.36" rx="9.216000000000001" ry="18.432000000000002" 
                 fill="#FF85C0" transform="rotate(90)"/>
      
        <ellipse cx="0" cy="-15.36" rx="9.216000000000001" ry="18.432000000000002" 
                 fill="#FF85C0" transform="rotate(180)"/>
      
        <ellipse cx="0" cy="-15.36" rx="9.216000000000001" ry="18.432000000000002" 
                 fill="#FF85C0" transform="rotate(270)"/>
      
      <circle cx="0" cy="0" r="6.911999999999999" fill="#FFE066"/>
    </g>
  
  
  <!-- Decoración adicional - pétalos flotantes -->
  <g opacity="0.3">
    <ellipse cx="28.799999999999997" cy="28.799999999999997" rx="7.68" ry="15.36" 
             fill="#FFE4F0" transform="rotate(45 28.799999999999997 28.799999999999997)"/>
    <ellipse cx="163.2" cy="163.2" rx="7.68" ry="15.36" 
             fill="#FFE4F0" transform="rotate(-45 163.2 163.2)"/>
  </g>
  
  <!-- Borde decorativo -->
  <rect x="2" y="2" width="188" height="188" 
        fill="none" stroke="rgba(255, 255, 255, 0.4)" stroke-width="3" rx="19.200000000000003"/>
</svg>