<?xml version="1.0" encoding="UTF-8"?>
<svg width="128" height="128" viewBox="0 0 128 128" xmlns="http://www.w3.org/2000/svg">
  <defs>
    <linearGradient id="bgGradient" x1="0%" y1="0%" x2="100%" y2="100%">
      <stop offset="0%" style="stop-color:#FFE4F0;stop-opacity:1" />
      <stop offset="50%" style="stop-color:#FFC0CB;stop-opacity:1" />
      <stop offset="100%" style="stop-color:#FFB6D4;stop-opacity:1" />
    </linearGradient>
    <filter id="shadow">
      <feDropShadow dx="0" dy="2" stdDeviation="3" flood-opacity="0.3"/>
    </filter>
  </defs>
  
  <!-- Fondo -->
  <rect width="128" height="128" fill="url(#bgGradient)" rx="12.8"/>
  
  <!-- Flor central grande -->
  <g transform="translate(64, 64)" filter="url(#shadow)">
    <!-- Pétalos -->
    
      <ellipse cx="0" cy="-19.2" rx="12.8" ry="25.6" 
               fill="#FF69B4" transform="rotate(0)"/>
    
      <ellipse cx="0" cy="-19.2" rx="12.8" ry="25.6" 
               fill="#FF69B4" transform="rotate(72)"/>
    
      <ellipse cx="0" cy="-19.2" rx="12.8" ry="25.6" 
               fill="#FF69B4" transform="rotate(144)"/>
    
      <ellipse cx="0" cy="-19.2" rx="12.8" ry="25.6" 
               fill="#FF69B4" transform="rotate(216)"/>
    
      <ellipse cx="0" cy="-19.2" rx="12.8" ry="25.6" 
               fill="#FF69B4" transform="rotate(288)"/>
    
    <!-- Centro -->
    <circle cx="0" cy="0" r="9.6" fill="#FFE066"/>
    <circle cx="0" cy="0" r="6.4" fill="#FFA500" opacity="0.6"/>
  </g>
  
  <!-- Flores pequeñas decorativas -->
  
    <g transform="translate(32, 38.4)" filter="url(#shadow)">
      
        <ellipse cx="0" cy="-10.24" rx="6.144" ry="12.288" 
                 fill="#FFB6D4" transform="rotate(0)"/>
      
        <ellipse cx="0" cy="-10.24" rx="6.144" ry="12.288" 
                 fill="#FFB6D4" transform="rotate(90)"/>
      
        <ellipse cx="0" cy="-10.24" rx="6.144" ry="12.288" 
                 fill="#FFB6D4" transform="rotate(180)"/>
      
        <ellipse cx="0" cy="-10.24" rx="6.144" ry="12.288" 
                 fill="#FFB6D4" transform="rotate(270)"/>
      
      <circle cx="0" cy="0" r="4.608" fill="#FFE066"/>
    </g>
  
    <g transform="translate(96, 38.4)" filter="url(#shadow)">
      
        <ellipse cx="0" cy="-10.24" rx="6.144" ry="12.288" 
                 fill="#FFB6D4" transform="rotate(0)"/>
      
        <ellipse cx="0" cy="-10.24" rx="6.144" ry="12.288" 
                 fill="#FFB6D4" transform="rotate(90)"/>
      
        <ellipse cx="0" cy="-10.24" rx="6.144" ry="12.288" 
                 fill="#FFB6D4" transform="rotate(180)"/>
      
        <ellipse cx="0" cy="-10.24" rx="6.144" ry="12.288" 
                 fill="#FFB6D4" transform="rotate(270)"/>
      
      <circle cx="0" cy="0" r="4.608" fill="#FFE066"/>
    </g>
  
    <g transform="translate(44.8, 96)" filter="url(#shadow)">
      
        <ellipse cx="0" cy="-10.24" rx="6.144" ry="12.288" 
                 fill="#FF85C0" transform="rotate(0)"/>
      
        <ellipse cx="0" cy="-10.24" rx="6.144" ry="12.288" 
                 fill="#FF85C0" transform="rotate(90)"/>
      
        <ellipse cx="0" cy="-10.24" rx="6.144" ry="12.288" 
                 fill="#FF85C0" transform="rotate(180)"/>
      
        <ellipse cx="0" cy="-10.24" rx="6.144" ry="12.288" 
                 fill="#FF85C0" transform="rotate(270)"/>
      
      <circle cx="0" cy="0" r="4.608" fill="#FFE066"/>
    </g>
  
    <g transform="translate(83.2, 96)" filter="url(#shadow)">
      
        <ellipse cx="0" cy="-10.24" rx="6.144" ry="12.288" 
                 fill="#FF85C0" transform="rotate(0)"/>
      
        <ellipse cx="0" cy="-10.24" rx="6.144" ry="12.288" 
                 fill="#FF85C0" transform="rotate(90)"/>
      
        <ellipse cx="0" cy="-10.24" rx="6.144" ry="12.288" 
                 fill="#FF85C0" transform="rotate(180)"/>
      
        <ellipse cx="0" cy="-10.24" rx="6.144" ry="12.288" 
                 fill="#FF85C0" transform="rotate(270)"/>
      
      <circle cx="0" cy="0" r="4.608" fill="#FFE066"/>
    </g>
  
  
  <!-- Decoración adicional - pétalos flotantes -->
  <g opacity="0.3">
    <ellipse cx="19.2" cy="19.2" rx="5.12" ry="10.24" 
             fill="#FFE4F0" transform="rotate(45 19.2 19.2)"/>
    <ellipse cx="108.8" cy="108.8" rx="5.12" ry="10.24" 
             fill="#FFE4F0" transform="rotate(-45 108.8 108.8)"/>
  </g>
  
  <!-- Borde decorativo -->
  <rect x="2" y="2" width="124" height="124" 
        fill="none" stroke="rgba(255, 255, 255, 0.4)" stroke-width="3" rx="12.8"/>
</svg>