<?xml version="1.0" encoding="UTF-8"?>
<svg width="152" height="152" viewBox="0 0 152 152" xmlns="http://www.w3.org/2000/svg">
  <defs>
    <linearGradient id="bgGradient" x1="0%" y1="0%" x2="100%" y2="100%">
      <stop offset="0%" style="stop-color:#FFE4F0;stop-opacity:1" />
      <stop offset="50%" style="stop-color:#FFC0CB;stop-opacity:1" />
      <stop offset="100%" style="stop-color:#FFB6D4;stop-opacity:1" />
    </linearGradient>
    <filter id="shadow">
      <feDropShadow dx="0" dy="2" stdDeviation="3" flood-opacity="0.3"/>
    </filter>
  </defs>
  
  <!-- Fondo -->
  <rect width="152" height="152" fill="url(#bgGradient)" rx="15.200000000000001"/>
  
  <!-- Flor central grande -->
  <g transform="translate(76, 76)" filter="url(#shadow)">
    <!-- Pétalos -->
    
      <ellipse cx="0" cy="-22.8" rx="15.200000000000001" ry="30.400000000000002" 
               fill="#FF69B4" transform="rotate(0)"/>
    
      <ellipse cx="0" cy="-22.8" rx="15.200000000000001" ry="30.400000000000002" 
               fill="#FF69B4" transform="rotate(72)"/>
    
      <ellipse cx="0" cy="-22.8" rx="15.200000000000001" ry="30.400000000000002" 
               fill="#FF69B4" transform="rotate(144)"/>
    
      <ellipse cx="0" cy="-22.8" rx="15.200000000000001" ry="30.400000000000002" 
               fill="#FF69B4" transform="rotate(216)"/>
    
      <ellipse cx="0" cy="-22.8" rx="15.200000000000001" ry="30.400000000000002" 
               fill="#FF69B4" transform="rotate(288)"/>
    
    <!-- Centro -->
    <circle cx="0" cy="0" r="11.4" fill="#FFE066"/>
    <circle cx="0" cy="0" r="7.6000000000000005" fill="#FFA500" opacity="0.6"/>
  </g>
  
  <!-- Flores pequeñas decorativas -->
  
    <g transform="translate(38, 45.6)" filter="url(#shadow)">
      
        <ellipse cx="0" cy="-12.16" rx="7.296" ry="14.592" 
                 fill="#FFB6D4" transform="rotate(0)"/>
      
        <ellipse cx="0" cy="-12.16" rx="7.296" ry="14.592" 
                 fill="#FFB6D4" transform="rotate(90)"/>
      
        <ellipse cx="0" cy="-12.16" rx="7.296" ry="14.592" 
                 fill="#FFB6D4" transform="rotate(180)"/>
      
        <ellipse cx="0" cy="-12.16" rx="7.296" ry="14.592" 
                 fill="#FFB6D4" transform="rotate(270)"/>
      
      <circle cx="0" cy="0" r="5.4719999999999995" fill="#FFE066"/>
    </g>
  
    <g transform="translate(114, 45.6)" filter="url(#shadow)">
      
        <ellipse cx="0" cy="-12.16" rx="7.296" ry="14.592" 
                 fill="#FFB6D4" transform="rotate(0)"/>
      
        <ellipse cx="0" cy="-12.16" rx="7.296" ry="14.592" 
                 fill="#FFB6D4" transform="rotate(90)"/>
      
        <ellipse cx="0" cy="-12.16" rx="7.296" ry="14.592" 
                 fill="#FFB6D4" transform="rotate(180)"/>
      
        <ellipse cx="0" cy="-12.16" rx="7.296" ry="14.592" 
                 fill="#FFB6D4" transform="rotate(270)"/>
      
      <circle cx="0" cy="0" r="5.4719999999999995" fill="#FFE066"/>
    </g>
  
    <g transform="translate(53.199999999999996, 114)" filter="url(#shadow)">
      
        <ellipse cx="0" cy="-12.16" rx="7.296" ry="14.592" 
                 fill="#FF85C0" transform="rotate(0)"/>
      
        <ellipse cx="0" cy="-12.16" rx="7.296" ry="14.592" 
                 fill="#FF85C0" transform="rotate(90)"/>
      
        <ellipse cx="0" cy="-12.16" rx="7.296" ry="14.592" 
                 fill="#FF85C0" transform="rotate(180)"/>
      
        <ellipse cx="0" cy="-12.16" rx="7.296" ry="14.592" 
                 fill="#FF85C0" transform="rotate(270)"/>
      
      <circle cx="0" cy="0" r="5.4719999999999995" fill="#FFE066"/>
    </g>
  
    <g transform="translate(98.8, 114)" filter="url(#shadow)">
      
        <ellipse cx="0" cy="-12.16" rx="7.296" ry="14.592" 
                 fill="#FF85C0" transform="rotate(0)"/>
      
        <ellipse cx="0" cy="-12.16" rx="7.296" ry="14.592" 
                 fill="#FF85C0" transform="rotate(90)"/>
      
        <ellipse cx="0" cy="-12.16" rx="7.296" ry="14.592" 
                 fill="#FF85C0" transform="rotate(180)"/>
      
        <ellipse cx="0" cy="-12.16" rx="7.296" ry="14.592" 
                 fill="#FF85C0" transform="rotate(270)"/>
      
      <circle cx="0" cy="0" r="5.4719999999999995" fill="#FFE066"/>
    </g>
  
  
  <!-- Decoración adicional - pétalos flotantes -->
  <g opacity="0.3">
    <ellipse cx="22.8" cy="22.8" rx="6.08" ry="12.16" 
             fill="#FFE4F0" transform="rotate(45 22.8 22.8)"/>
    <ellipse cx="129.2" cy="129.2" rx="6.08" ry="12.16" 
             fill="#FFE4F0" transform="rotate(-45 129.2 129.2)"/>
  </g>
  
  <!-- Borde decorativo -->
  <rect x="2" y="2" width="148" height="148" 
        fill="none" stroke="rgba(255, 255, 255, 0.4)" stroke-width="3" rx="15.200000000000001"/>
</svg>