<?xml version="1.0" encoding="UTF-8"?>
<svg width="72" height="72" viewBox="0 0 72 72" xmlns="http://www.w3.org/2000/svg">
  <defs>
    <linearGradient id="bgGradient" x1="0%" y1="0%" x2="100%" y2="100%">
      <stop offset="0%" style="stop-color:#FFE4F0;stop-opacity:1" />
      <stop offset="50%" style="stop-color:#FFC0CB;stop-opacity:1" />
      <stop offset="100%" style="stop-color:#FFB6D4;stop-opacity:1" />
    </linearGradient>
    <filter id="shadow">
      <feDropShadow dx="0" dy="2" stdDeviation="3" flood-opacity="0.3"/>
    </filter>
  </defs>
  
  <!-- Fondo -->
  <rect width="72" height="72" fill="url(#bgGradient)" rx="7.2"/>
  
  <!-- Flor central grande -->
  <g transform="translate(36, 36)" filter="url(#shadow)">
    <!-- Pétalos -->
    
      <ellipse cx="0" cy="-10.799999999999999" rx="7.2" ry="14.4" 
               fill="#FF69B4" transform="rotate(0)"/>
    
      <ellipse cx="0" cy="-10.799999999999999" rx="7.2" ry="14.4" 
               fill="#FF69B4" transform="rotate(72)"/>
    
      <ellipse cx="0" cy="-10.799999999999999" rx="7.2" ry="14.4" 
               fill="#FF69B4" transform="rotate(144)"/>
    
      <ellipse cx="0" cy="-10.799999999999999" rx="7.2" ry="14.4" 
               fill="#FF69B4" transform="rotate(216)"/>
    
      <ellipse cx="0" cy="-10.799999999999999" rx="7.2" ry="14.4" 
               fill="#FF69B4" transform="rotate(288)"/>
    
    <!-- Centro -->
    <circle cx="0" cy="0" r="5.3999999999999995" fill="#FFE066"/>
    <circle cx="0" cy="0" r="3.6" fill="#FFA500" opacity="0.6"/>
  </g>
  
  <!-- Flores pequeñas decorativas -->
  
    <g transform="translate(18, 21.599999999999998)" filter="url(#shadow)">
      
        <ellipse cx="0" cy="-5.76" rx="3.456" ry="6.912" 
                 fill="#FFB6D4" transform="rotate(0)"/>
      
        <ellipse cx="0" cy="-5.76" rx="3.456" ry="6.912" 
                 fill="#FFB6D4" transform="rotate(90)"/>
      
        <ellipse cx="0" cy="-5.76" rx="3.456" ry="6.912" 
                 fill="#FFB6D4" transform="rotate(180)"/>
      
        <ellipse cx="0" cy="-5.76" rx="3.456" ry="6.912" 
                 fill="#FFB6D4" transform="rotate(270)"/>
      
      <circle cx="0" cy="0" r="2.5919999999999996" fill="#FFE066"/>
    </g>
  
    <g transform="translate(54, 21.599999999999998)" filter="url(#shadow)">
      
        <ellipse cx="0" cy="-5.76" rx="3.456" ry="6.912" 
                 fill="#FFB6D4" transform="rotate(0)"/>
      
        <ellipse cx="0" cy="-5.76" rx="3.456" ry="6.912" 
                 fill="#FFB6D4" transform="rotate(90)"/>
      
        <ellipse cx="0" cy="-5.76" rx="3.456" ry="6.912" 
                 fill="#FFB6D4" transform="rotate(180)"/>
      
        <ellipse cx="0" cy="-5.76" rx="3.456" ry="6.912" 
                 fill="#FFB6D4" transform="rotate(270)"/>
      
      <circle cx="0" cy="0" r="2.5919999999999996" fill="#FFE066"/>
    </g>
  
    <g transform="translate(25.2, 54)" filter="url(#shadow)">
      
        <ellipse cx="0" cy="-5.76" rx="3.456" ry="6.912" 
                 fill="#FF85C0" transform="rotate(0)"/>
      
        <ellipse cx="0" cy="-5.76" rx="3.456" ry="6.912" 
                 fill="#FF85C0" transform="rotate(90)"/>
      
        <ellipse cx="0" cy="-5.76" rx="3.456" ry="6.912" 
                 fill="#FF85C0" transform="rotate(180)"/>
      
        <ellipse cx="0" cy="-5.76" rx="3.456" ry="6.912" 
                 fill="#FF85C0" transform="rotate(270)"/>
      
      <circle cx="0" cy="0" r="2.5919999999999996" fill="#FFE066"/>
    </g>
  
    <g transform="translate(46.800000000000004, 54)" filter="url(#shadow)">
      
        <ellipse cx="0" cy="-5.76" rx="3.456" ry="6.912" 
                 fill="#FF85C0" transform="rotate(0)"/>
      
        <ellipse cx="0" cy="-5.76" rx="3.456" ry="6.912" 
                 fill="#FF85C0" transform="rotate(90)"/>
      
        <ellipse cx="0" cy="-5.76" rx="3.456" ry="6.912" 
                 fill="#FF85C0" transform="rotate(180)"/>
      
        <ellipse cx="0" cy="-5.76" rx="3.456" ry="6.912" 
                 fill="#FF85C0" transform="rotate(270)"/>
      
      <circle cx="0" cy="0" r="2.5919999999999996" fill="#FFE066"/>
    </g>
  
  
  <!-- Decoración adicional - pétalos flotantes -->
  <g opacity="0.3">
    <ellipse cx="10.799999999999999" cy="10.799999999999999" rx="2.88" ry="5.76" 
             fill="#FFE4F0" transform="rotate(45 10.799999999999999 10.799999999999999)"/>
    <ellipse cx="61.199999999999996" cy="61.199999999999996" rx="2.88" ry="5.76" 
             fill="#FFE4F0" transform="rotate(-45 61.199999999999996 61.199999999999996)"/>
  </g>
  
  <!-- Borde decorativo -->
  <rect x="2" y="2" width="68" height="68" 
        fill="none" stroke="rgba(255, 255, 255, 0.4)" stroke-width="3" rx="7.2"/>
</svg>