<?xml version="1.0" encoding="UTF-8"?>
<svg width="96" height="96" viewBox="0 0 96 96" xmlns="http://www.w3.org/2000/svg">
  <defs>
    <linearGradient id="bgGradient" x1="0%" y1="0%" x2="100%" y2="100%">
      <stop offset="0%" style="stop-color:#FFE4F0;stop-opacity:1" />
      <stop offset="50%" style="stop-color:#FFC0CB;stop-opacity:1" />
      <stop offset="100%" style="stop-color:#FFB6D4;stop-opacity:1" />
    </linearGradient>
    <filter id="shadow">
      <feDropShadow dx="0" dy="2" stdDeviation="3" flood-opacity="0.3"/>
    </filter>
  </defs>
  
  <!-- Fondo -->
  <rect width="96" height="96" fill="url(#bgGradient)" rx="9.600000000000001"/>
  
  <!-- Flor central grande -->
  <g transform="translate(48, 48)" filter="url(#shadow)">
    <!-- Pétalos -->
    
      <ellipse cx="0" cy="-14.399999999999999" rx="9.600000000000001" ry="19.200000000000003" 
               fill="#FF69B4" transform="rotate(0)"/>
    
      <ellipse cx="0" cy="-14.399999999999999" rx="9.600000000000001" ry="19.200000000000003" 
               fill="#FF69B4" transform="rotate(72)"/>
    
      <ellipse cx="0" cy="-14.399999999999999" rx="9.600000000000001" ry="19.200000000000003" 
               fill="#FF69B4" transform="rotate(144)"/>
    
      <ellipse cx="0" cy="-14.399999999999999" rx="9.600000000000001" ry="19.200000000000003" 
               fill="#FF69B4" transform="rotate(216)"/>
    
      <ellipse cx="0" cy="-14.399999999999999" rx="9.600000000000001" ry="19.200000000000003" 
               fill="#FF69B4" transform="rotate(288)"/>
    
    <!-- Centro -->
    <circle cx="0" cy="0" r="7.199999999999999" fill="#FFE066"/>
    <circle cx="0" cy="0" r="4.800000000000001" fill="#FFA500" opacity="0.6"/>
  </g>
  
  <!-- Flores pequeñas decorativas -->
  
    <g transform="translate(24, 28.799999999999997)" filter="url(#shadow)">
      
        <ellipse cx="0" cy="-7.68" rx="4.6080000000000005" ry="9.216000000000001" 
                 fill="#FFB6D4" transform="rotate(0)"/>
      
        <ellipse cx="0" cy="-7.68" rx="4.6080000000000005" ry="9.216000000000001" 
                 fill="#FFB6D4" transform="rotate(90)"/>
      
        <ellipse cx="0" cy="-7.68" rx="4.6080000000000005" ry="9.216000000000001" 
                 fill="#FFB6D4" transform="rotate(180)"/>
      
        <ellipse cx="0" cy="-7.68" rx="4.6080000000000005" ry="9.216000000000001" 
                 fill="#FFB6D4" transform="rotate(270)"/>
      
      <circle cx="0" cy="0" r="3.4559999999999995" fill="#FFE066"/>
    </g>
  
    <g transform="translate(72, 28.799999999999997)" filter="url(#shadow)">
      
        <ellipse cx="0" cy="-7.68" rx="4.6080000000000005" ry="9.216000000000001" 
                 fill="#FFB6D4" transform="rotate(0)"/>
      
        <ellipse cx="0" cy="-7.68" rx="4.6080000000000005" ry="9.216000000000001" 
                 fill="#FFB6D4" transform="rotate(90)"/>
      
        <ellipse cx="0" cy="-7.68" rx="4.6080000000000005" ry="9.216000000000001" 
                 fill="#FFB6D4" transform="rotate(180)"/>
      
        <ellipse cx="0" cy="-7.68" rx="4.6080000000000005" ry="9.216000000000001" 
                 fill="#FFB6D4" transform="rotate(270)"/>
      
      <circle cx="0" cy="0" r="3.4559999999999995" fill="#FFE066"/>
    </g>
  
    <g transform="translate(33.599999999999994, 72)" filter="url(#shadow)">
      
        <ellipse cx="0" cy="-7.68" rx="4.6080000000000005" ry="9.216000000000001" 
                 fill="#FF85C0" transform="rotate(0)"/>
      
        <ellipse cx="0" cy="-7.68" rx="4.6080000000000005" ry="9.216000000000001" 
                 fill="#FF85C0" transform="rotate(90)"/>
      
        <ellipse cx="0" cy="-7.68" rx="4.6080000000000005" ry="9.216000000000001" 
                 fill="#FF85C0" transform="rotate(180)"/>
      
        <ellipse cx="0" cy="-7.68" rx="4.6080000000000005" ry="9.216000000000001" 
                 fill="#FF85C0" transform="rotate(270)"/>
      
      <circle cx="0" cy="0" r="3.4559999999999995" fill="#FFE066"/>
    </g>
  
    <g transform="translate(62.400000000000006, 72)" filter="url(#shadow)">
      
        <ellipse cx="0" cy="-7.68" rx="4.6080000000000005" ry="9.216000000000001" 
                 fill="#FF85C0" transform="rotate(0)"/>
      
        <ellipse cx="0" cy="-7.68" rx="4.6080000000000005" ry="9.216000000000001" 
                 fill="#FF85C0" transform="rotate(90)"/>
      
        <ellipse cx="0" cy="-7.68" rx="4.6080000000000005" ry="9.216000000000001" 
                 fill="#FF85C0" transform="rotate(180)"/>
      
        <ellipse cx="0" cy="-7.68" rx="4.6080000000000005" ry="9.216000000000001" 
                 fill="#FF85C0" transform="rotate(270)"/>
      
      <circle cx="0" cy="0" r="3.4559999999999995" fill="#FFE066"/>
    </g>
  
  
  <!-- Decoración adicional - pétalos flotantes -->
  <g opacity="0.3">
    <ellipse cx="14.399999999999999" cy="14.399999999999999" rx="3.84" ry="7.68" 
             fill="#FFE4F0" transform="rotate(45 14.399999999999999 14.399999999999999)"/>
    <ellipse cx="81.6" cy="81.6" rx="3.84" ry="7.68" 
             fill="#FFE4F0" transform="rotate(-45 81.6 81.6)"/>
  </g>
  
  <!-- Borde decorativo -->
  <rect x="2" y="2" width="92" height="92" 
        fill="none" stroke="rgba(255, 255, 255, 0.4)" stroke-width="3" rx="9.600000000000001"/>
</svg>